<svg width="21" height="20" viewBox="0 0 21 20" fill="none" xmlns="http://www.w3.org/2000/svg">
<path d="M19.47 7.00011C19.6677 7.00011 19.8611 6.94146 20.0255 6.83158C20.19 6.7217 20.3182 6.56552 20.3938 6.3828C20.4695 6.20007 20.4893 5.999 20.4507 5.80502C20.4122 5.61104 20.3169 5.43286 20.1771 5.29301C20.0372 5.15315 19.859 5.05791 19.6651 5.01933C19.4711 4.98074 19.27 5.00055 19.0873 5.07623C18.9046 5.15192 18.7484 5.28009 18.6385 5.44454C18.5286 5.60899 18.47 5.80233 18.47 6.00011C18.47 6.26533 18.5753 6.51968 18.7629 6.70722C18.9504 6.89475 19.2047 7.00011 19.47 7.00011ZM16.47 7.00011C16.6677 7.00011 16.8611 6.94146 17.0255 6.83158C17.19 6.7217 17.3182 6.56552 17.3938 6.3828C17.4695 6.20007 17.4893 5.999 17.4507 5.80502C17.4122 5.61104 17.3169 5.43286 17.1771 5.29301C17.0372 5.15315 16.859 5.05791 16.6651 5.01933C16.4711 4.98074 16.27 5.00055 16.0873 5.07623C15.9046 5.15192 15.7484 5.28009 15.6385 5.44454C15.5286 5.60899 15.47 5.80233 15.47 6.00011C15.47 6.26533 15.5753 6.51968 15.7629 6.70722C15.9504 6.89475 16.2047 7.00011 16.47 7.00011ZM13.47 7.00011C13.6677 7.00011 13.8611 6.94146 14.0255 6.83158C14.19 6.7217 14.3182 6.56552 14.3938 6.3828C14.4695 6.20007 14.4893 5.999 14.4507 5.80502C14.4122 5.61104 14.3169 5.43286 14.1771 5.29301C14.0372 5.15315 13.859 5.05791 13.6651 5.01933C13.4711 4.98074 13.27 5.00055 13.0873 5.07623C12.9046 5.15192 12.7484 5.28009 12.6385 5.44454C12.5286 5.60899 12.47 5.80233 12.47 6.00011C12.47 6.13143 12.4958 6.26147 12.5461 6.3828C12.5963 6.50412 12.67 6.61436 12.7629 6.70722C12.8557 6.80008 12.966 6.87374 13.0873 6.92399C13.2086 6.97425 13.3386 7.00011 13.47 7.00011ZM17.91 11.0001C17.69 11.0001 17.46 10.9301 17.24 10.8801C16.7944 10.7819 16.3566 10.6516 15.93 10.4901C15.4661 10.3213 14.9561 10.3301 14.4983 10.5147C14.0404 10.6993 13.667 11.0467 13.45 11.4901L13.23 11.9401C12.2545 11.3959 11.3564 10.7233 10.56 9.94011C9.78064 9.14404 9.10832 8.24985 8.55996 7.28011L8.99996 7.00011C9.44333 6.78303 9.79074 6.40964 9.97536 5.9518C10.16 5.49396 10.1687 4.98402 9.99996 4.52011C9.84119 4.09253 9.7109 3.65491 9.60996 3.21011C9.55996 2.98011 9.51996 2.76011 9.48996 2.53011C9.36853 1.82573 8.99959 1.18785 8.44958 0.731352C7.89958 0.274849 7.20466 0.0297211 6.48996 0.0401122H3.48996C3.06721 0.0395585 2.64911 0.12836 2.26308 0.300696C1.87705 0.473032 1.5318 0.72501 1.24996 1.04011C0.963653 1.36261 0.750236 1.74304 0.624261 2.15548C0.498285 2.56792 0.462711 3.00268 0.519964 3.43011C1.04668 7.61716 2.95234 11.5097 5.93636 14.4937C8.92038 17.4777 12.8129 19.3834 17 19.9101C17.1298 19.92 17.2602 19.92 17.39 19.9101C18.1856 19.9101 18.9487 19.594 19.5113 19.0314C20.0739 18.4688 20.39 17.7058 20.39 16.9101V13.9101C20.3796 13.2123 20.1263 12.54 19.6736 12.0089C19.2209 11.4777 18.5973 11.121 17.91 11.0001ZM18.4 17.0001C18.4016 17.1451 18.3717 17.2886 18.3124 17.4209C18.253 17.5532 18.1656 17.6709 18.0562 17.766C17.9468 17.8612 17.8181 17.9314 17.6788 17.9718C17.5396 18.0122 17.3933 18.0219 17.25 18.0001C13.5161 17.5129 10.0471 15.8082 7.37996 13.1501C4.71496 10.465 3.01321 6.97355 2.53996 3.22011C2.51824 3.07345 2.5294 2.92379 2.57264 2.78196C2.61588 2.64014 2.69011 2.50971 2.78996 2.40011C2.88256 2.2947 2.99629 2.20995 3.12379 2.15137C3.25128 2.09279 3.38967 2.0617 3.52996 2.06011H6.52996C6.76251 2.05494 6.98959 2.13099 7.17211 2.27518C7.35463 2.41937 7.48117 2.62268 7.52996 2.85011C7.56996 3.12345 7.61996 3.39345 7.67996 3.66011C7.79548 4.18726 7.94922 4.70529 8.13996 5.21011L6.73996 5.86011C6.62026 5.91503 6.51259 5.99306 6.42312 6.08971C6.33366 6.18636 6.26416 6.29973 6.21864 6.42331C6.17311 6.54689 6.15244 6.67824 6.15781 6.80983C6.16319 6.94142 6.1945 7.07066 6.24996 7.19011C7.68916 10.2729 10.1672 12.7509 13.25 14.1901C13.4934 14.2901 13.7665 14.2901 14.01 14.1901C14.2581 14.0978 14.4595 13.9107 14.57 13.6701L15.2 12.2701C15.7169 12.455 16.2446 12.6086 16.78 12.7301C17.04 12.7901 17.32 12.8401 17.59 12.8801C17.8155 12.9309 18.0166 13.0583 18.1588 13.2406C18.301 13.423 18.3756 13.649 18.37 13.8801L18.4 17.0001Z" fill="black"/>
</svg>
