<svg width="16" height="18" viewBox="0 0 16 18" fill="none" xmlns="http://www.w3.org/2000/svg">
<path d="M13 0.666656H3C2.33696 0.666656 1.70107 0.930049 1.23223 1.39889C0.763392 1.86773 0.5 2.50362 0.5 3.16666V12.3333C0.5 12.9964 0.763392 13.6323 1.23223 14.1011C1.70107 14.5699 2.33696 14.8333 3 14.8333H5.15833L7.40833 17.0917C7.4862 17.1689 7.57855 17.23 7.68008 17.2715C7.78161 17.3129 7.89033 17.334 8 17.3333C8.19862 17.3333 8.39071 17.2624 8.54167 17.1333L11.225 14.8333H13C13.663 14.8333 14.2989 14.5699 14.7678 14.1011C15.2366 13.6323 15.5 12.9964 15.5 12.3333V3.16666C15.5 2.50362 15.2366 1.86773 14.7678 1.39889C14.2989 0.930049 13.663 0.666656 13 0.666656ZM13.8333 12.3333C13.8333 12.5543 13.7455 12.7663 13.5893 12.9226C13.433 13.0789 13.221 13.1667 13 13.1667H10.9167C10.718 13.1666 10.526 13.2376 10.375 13.3667L8.04167 15.3667L6.09167 13.4083C6.0138 13.3311 5.92145 13.27 5.81992 13.2285C5.71839 13.187 5.60967 13.166 5.5 13.1667H3C2.77899 13.1667 2.56702 13.0789 2.41074 12.9226C2.25446 12.7663 2.16667 12.5543 2.16667 12.3333V3.16666C2.16667 2.94564 2.25446 2.73368 2.41074 2.5774C2.56702 2.42112 2.77899 2.33332 3 2.33332H13C13.221 2.33332 13.433 2.42112 13.5893 2.5774C13.7455 2.73368 13.8333 2.94564 13.8333 3.16666V12.3333Z" fill="#14191F"/>
</svg>
