  <svg
                  width="12"
                  height="14"
                  viewBox="0 0 12 14"
                  fill="none"
                  xmlns="http://www.w3.org/2000/svg"
                >
                  <path
                    d="M10 0.333984H2C1.46957 0.333984 0.960859 0.544698 0.585787 0.919771C0.210714 1.29484 0 1.80355 0 2.33398V9.66732C0 10.1978 0.210714 10.7065 0.585787 11.0815C0.960859 11.4566 1.46957 11.6673 2 11.6673H3.72667L5.52667 13.474C5.58896 13.5358 5.66284 13.5847 5.74406 13.6178C5.82529 13.651 5.91226 13.6678 6 13.6673C6.1589 13.6673 6.31257 13.6106 6.43333 13.5073L8.58 11.6673H10C10.5304 11.6673 11.0391 11.4566 11.4142 11.0815C11.7893 10.7065 12 10.1978 12 9.66732V2.33398C12 1.80355 11.7893 1.29484 11.4142 0.919771C11.0391 0.544698 10.5304 0.333984 10 0.333984ZM10.6667 9.66732C10.6667 9.84413 10.5964 10.0137 10.4714 10.1387C10.3464 10.2637 10.1768 10.334 10 10.334H8.33333C8.17444 10.334 8.02076 10.3907 7.9 10.494L6.03333 12.094L4.47333 10.5273C4.41104 10.4655 4.33716 10.4166 4.25594 10.3835C4.17471 10.3503 4.08774 10.3335 4 10.334H2C1.82319 10.334 1.65362 10.2637 1.5286 10.1387C1.40357 10.0137 1.33333 9.84413 1.33333 9.66732V2.33398C1.33333 2.15717 1.40357 1.9876 1.5286 1.86258C1.65362 1.73756 1.82319 1.66732 2 1.66732H10C10.1768 1.66732 10.3464 1.73756 10.4714 1.86258C10.5964 1.9876 10.6667 2.15717 10.6667 2.33398V9.66732Z"
                    fill="#14191F"
                  />
                </svg>