<svg width="16" height="18" viewBox="0 0 16 18" fill="none" xmlns="http://www.w3.org/2000/svg">
<path d="M13 0.666504H3C2.33696 0.666504 1.70107 0.929896 1.23223 1.39874C0.763392 1.86758 0.5 2.50346 0.5 3.1665V12.3332C0.5 12.9962 0.763392 13.6321 1.23223 14.1009C1.70107 14.5698 2.33696 14.8332 3 14.8332H5.15833L7.40833 17.0915C7.4862 17.1687 7.57855 17.2298 7.68008 17.2713C7.78161 17.3128 7.89033 17.3338 8 17.3332C8.19862 17.3332 8.39071 17.2623 8.54167 17.1332L11.225 14.8332H13C13.663 14.8332 14.2989 14.5698 14.7678 14.1009C15.2366 13.6321 15.5 12.9962 15.5 12.3332V3.1665C15.5 2.50346 15.2366 1.86758 14.7678 1.39874C14.2989 0.929896 13.663 0.666504 13 0.666504ZM13.8333 12.3332C13.8333 12.5542 13.7455 12.7661 13.5893 12.9224C13.433 13.0787 13.221 13.1665 13 13.1665H10.9167C10.718 13.1665 10.526 13.2374 10.375 13.3665L8.04167 15.3665L6.09167 13.4082C6.0138 13.3309 5.92145 13.2698 5.81992 13.2284C5.71839 13.1869 5.60967 13.1659 5.5 13.1665H3C2.77899 13.1665 2.56702 13.0787 2.41074 12.9224C2.25446 12.7661 2.16667 12.5542 2.16667 12.3332V3.1665C2.16667 2.94549 2.25446 2.73353 2.41074 2.57725C2.56702 2.42097 2.77899 2.33317 3 2.33317H13C13.221 2.33317 13.433 2.42097 13.5893 2.57725C13.7455 2.73353 13.8333 2.94549 13.8333 3.1665V12.3332Z" fill="black"/>
</svg>
