<svg width="20" height="20" viewBox="0 0 20 20" fill="none" xmlns="http://www.w3.org/2000/svg">
<path d="M14.1667 9.16667H13.3334C13.1123 9.16667 12.9004 9.25447 12.7441 9.41075C12.5878 9.56703 12.5 9.77899 12.5 10C12.5 10.221 12.5878 10.433 12.7441 10.5893C12.9004 10.7455 13.1123 10.8333 13.3334 10.8333H14.1667C14.3877 10.8333 14.5997 10.7455 14.7559 10.5893C14.9122 10.433 15 10.221 15 10C15 9.77899 14.9122 9.56703 14.7559 9.41075C14.5997 9.25447 14.3877 9.16667 14.1667 9.16667ZM14.1667 12.5H13.3334C13.1123 12.5 12.9004 12.5878 12.7441 12.7441C12.5878 12.9004 12.5 13.1123 12.5 13.3333C12.5 13.5543 12.5878 13.7663 12.7441 13.9226C12.9004 14.0789 13.1123 14.1667 13.3334 14.1667H14.1667C14.3877 14.1667 14.5997 14.0789 14.7559 13.9226C14.9122 13.7663 15 13.5543 15 13.3333C15 13.1123 14.9122 12.9004 14.7559 12.7441C14.5997 12.5878 14.3877 12.5 14.1667 12.5ZM9.16669 7.5H14.1667C14.3877 7.5 14.5997 7.4122 14.7559 7.25592C14.9122 7.09964 15 6.88768 15 6.66667C15 6.44565 14.9122 6.23369 14.7559 6.07741C14.5997 5.92113 14.3877 5.83333 14.1667 5.83333H9.16669C8.94567 5.83333 8.73371 5.92113 8.57743 6.07741C8.42115 6.23369 8.33335 6.44565 8.33335 6.66667C8.33335 6.88768 8.42115 7.09964 8.57743 7.25592C8.73371 7.4122 8.94567 7.5 9.16669 7.5V7.5ZM17.5 2.5H5.83335C5.61234 2.5 5.40038 2.5878 5.2441 2.74408C5.08782 2.90036 5.00002 3.11232 5.00002 3.33333V5.83333H2.50002C2.27901 5.83333 2.06704 5.92113 1.91076 6.07741C1.75448 6.23369 1.66669 6.44565 1.66669 6.66667V15C1.66669 15.663 1.93008 16.2989 2.39892 16.7678C2.86776 17.2366 3.50365 17.5 4.16669 17.5H15C15.8841 17.5 16.7319 17.1488 17.357 16.5237C17.9822 15.8986 18.3334 15.0507 18.3334 14.1667V3.33333C18.3334 3.11232 18.2456 2.90036 18.0893 2.74408C17.933 2.5878 17.721 2.5 17.5 2.5V2.5ZM5.00002 15C5.00002 15.221 4.91222 15.433 4.75594 15.5893C4.59966 15.7455 4.3877 15.8333 4.16669 15.8333C3.94567 15.8333 3.73371 15.7455 3.57743 15.5893C3.42115 15.433 3.33335 15.221 3.33335 15V7.5H5.00002V15ZM16.6667 14.1667C16.6667 14.6087 16.4911 15.0326 16.1785 15.3452C15.866 15.6577 15.442 15.8333 15 15.8333H6.51669C6.61371 15.5661 6.66443 15.2843 6.66669 15V4.16667H16.6667V14.1667ZM9.16669 10.8333H10C10.221 10.8333 10.433 10.7455 10.5893 10.5893C10.7456 10.433 10.8334 10.221 10.8334 10C10.8334 9.77899 10.7456 9.56703 10.5893 9.41075C10.433 9.25447 10.221 9.16667 10 9.16667H9.16669C8.94567 9.16667 8.73371 9.25447 8.57743 9.41075C8.42115 9.56703 8.33335 9.77899 8.33335 10C8.33335 10.221 8.42115 10.433 8.57743 10.5893C8.73371 10.7455 8.94567 10.8333 9.16669 10.8333V10.8333ZM9.16669 14.1667H10C10.221 14.1667 10.433 14.0789 10.5893 13.9226C10.7456 13.7663 10.8334 13.5543 10.8334 13.3333C10.8334 13.1123 10.7456 12.9004 10.5893 12.7441C10.433 12.5878 10.221 12.5 10 12.5H9.16669C8.94567 12.5 8.73371 12.5878 8.57743 12.7441C8.42115 12.9004 8.33335 13.1123 8.33335 13.3333C8.33335 13.5543 8.42115 13.7663 8.57743 13.9226C8.73371 14.0789 8.94567 14.1667 9.16669 14.1667V14.1667Z" fill="#14191F"/>
</svg>
