<svg width="14" height="14" viewBox="0 0 14 14" fill="none" xmlns="http://www.w3.org/2000/svg">
<path d="M9.47333 7.47331C10.1269 6.95909 10.604 6.25393 10.8382 5.45594C11.0723 4.65796 11.0519 3.80682 10.7799 3.02096C10.5078 2.23509 9.9975 1.55358 9.32005 1.07122C8.64259 0.588861 7.83163 0.329651 7 0.329651C6.16836 0.329651 5.35741 0.588861 4.67995 1.07122C4.0025 1.55358 3.49223 2.23509 3.22014 3.02096C2.94805 3.80682 2.92767 4.65796 3.16184 5.45594C3.396 6.25393 3.87307 6.95909 4.52666 7.47331C3.40672 7.92201 2.42952 8.66621 1.69926 9.62659C0.968996 10.587 0.51304 11.7275 0.379998 12.9266C0.370368 13.0142 0.378075 13.1028 0.402681 13.1874C0.427287 13.2719 0.468309 13.3508 0.523405 13.4195C0.634677 13.5583 0.79652 13.6472 0.973331 13.6666C1.15014 13.6861 1.32744 13.6345 1.46621 13.5232C1.60499 13.412 1.69388 13.2501 1.71333 13.0733C1.85972 11.7701 2.48112 10.5665 3.45881 9.69251C4.4365 8.8185 5.70193 8.33533 7.01333 8.33533C8.32473 8.33533 9.59016 8.8185 10.5679 9.69251C11.5455 10.5665 12.1669 11.7701 12.3133 13.0733C12.3315 13.2371 12.4096 13.3884 12.5327 13.498C12.6559 13.6076 12.8152 13.6676 12.98 13.6666H13.0533C13.2281 13.6465 13.3878 13.5582 13.4977 13.4208C13.6076 13.2835 13.6587 13.1082 13.64 12.9333C13.5063 11.7308 13.0479 10.5873 12.3139 9.62545C11.5799 8.6636 10.5979 7.91963 9.47333 7.47331ZM7 6.99998C6.47258 6.99998 5.95701 6.84358 5.51848 6.55057C5.07995 6.25755 4.73815 5.84107 4.53632 5.3538C4.33449 4.86653 4.28168 4.33036 4.38457 3.81307C4.48746 3.29579 4.74144 2.82064 5.11438 2.4477C5.48732 2.07476 5.96247 1.82078 6.47976 1.71789C6.99704 1.61499 7.53322 1.6678 8.02049 1.86964C8.50776 2.07147 8.92423 2.41326 9.21725 2.85179C9.51027 3.29032 9.66667 3.8059 9.66667 4.33331C9.66667 5.04056 9.38571 5.71884 8.88562 6.21893C8.38552 6.71903 7.70724 6.99998 7 6.99998Z" fill="#14191F"/>
</svg>
