<svg width="20" height="20" viewBox="0 0 20 20" fill="none" xmlns="http://www.w3.org/2000/svg">
<path fill-rule="evenodd" clip-rule="evenodd" d="M18.8225 12.1867L10.8358 4.16667H6.72917C6.8175 4.46417 6.86833 4.75083 6.87333 5.02083C7.69417 5.12333 8.33333 5.8175 8.33333 6.66667C8.33333 7.58667 7.58667 8.33333 6.66667 8.33333C5.74667 8.33333 5 7.58667 5 6.66667C5 5.96417 5.43667 5.36583 6.05167 5.12083C6.06 4.84 5.99583 4.51167 5.8625 4.16667H4.16667V10.8375L12.1858 18.8225L18.8225 12.1867ZM6.74833 5.85C6.675 6.02917 6.57583 6.19 6.44667 6.32333C6.25417 6.5225 6.05333 6.65167 5.8475 6.73583C5.885 7.16167 6.23167 7.5 6.66667 7.5C7.12667 7.5 7.5 7.12667 7.5 6.66667C7.5 6.23583 7.1675 5.8925 6.74833 5.85ZM20 12.1875L12.1875 20L3.33333 11.1842V6.25583C2.3975 5.82917 1.33833 5.34667 0 5.34667V4.51333C1.3425 4.51333 2.43333 4.93917 3.33333 5.34167V3.33333H5.41C4.53167 2.05833 2.75917 0.833333 0 0.833333V0C3.41083 0 5.5025 1.7125 6.38417 3.33333H11.1817L20 12.1875ZM14.1692 13.63L14.6033 14.0642L14.0217 14.645L13.5717 14.1967C13.1342 14.5267 12.6817 14.6942 12.2283 14.6942C11.685 14.6942 11.1683 14.4483 10.7833 14.0667L11.3983 13.4508C11.6508 13.6758 11.9242 13.8358 12.2725 13.8358C12.6417 13.8358 13.0192 13.6458 13.395 13.27C13.6958 12.9708 13.8692 12.6567 13.9125 12.335C13.9975 11.7017 13.505 11.2867 13.0142 11.2867C12.6875 11.2867 12.285 11.44 11.785 11.7558C10.7642 12.4 9.78333 12.7917 8.94083 11.9492C8.17583 11.185 8.40333 10.1892 8.8775 9.50083L8.33333 8.9575L8.915 8.375L9.43667 8.8975C9.885 8.5225 10.3508 8.33333 10.8225 8.33333C11.3767 8.33333 11.8942 8.59667 12.29 8.99333L11.67 9.61333C11.0608 8.995 10.3167 9.15917 9.77333 9.70167C9.505 9.97083 9.34 10.2642 9.29667 10.5517C9.195 11.2267 9.79667 11.5667 10.0975 11.5667C10.3792 11.5667 10.7425 11.4217 11.3108 11.08C12.0975 10.6108 12.6383 10.41 13.12 10.41C13.5475 10.41 13.9225 10.5783 14.2683 10.9242C15.1333 11.7892 14.7883 12.8833 14.1692 13.63Z" fill="black" stroke="black" stroke-width="0.6"/>
</svg>
