<svg width="14" height="12" viewBox="0 0 14 12" fill="none" xmlns="http://www.w3.org/2000/svg">
<path d="M5.74332 0.993416C5.79398 0.463416 6.34732 0.0267496 6.90532 0.345416C8.06532 1.02475 9.15998 1.79875 10.2186 2.62608C11.5253 3.65808 12.574 4.63075 13.3167 5.40742C13.6387 5.74542 13.6087 6.27942 13.3007 6.60208C12.5652 7.36279 11.7873 8.08127 10.9707 8.75408C9.67865 9.81208 8.34065 10.8374 6.88398 11.6594C6.38998 11.9381 5.85465 11.6194 5.75932 11.1254L5.74798 11.0501L5.59665 8.66742C4.38598 8.69275 3.21398 9.10875 2.27665 9.88275L2.09998 10.0308L2.01465 10.1001L1.84998 10.2281C1.82332 10.2481 1.79665 10.2681 1.76998 10.2867L1.61665 10.3934C1.56903 10.4247 1.52057 10.4547 1.47132 10.4834L1.33398 10.5574C0.689984 10.8754 0.333984 10.5941 0.333984 9.33275C0.333984 6.39675 2.49732 3.78408 5.42198 3.38808L5.59465 3.36742L5.74332 0.994083V0.993416ZM7.01598 1.97608L6.88798 4.29075C6.88366 4.36987 6.85129 4.44487 6.79668 4.50229C6.74207 4.55971 6.66879 4.5958 6.58998 4.60408L5.68265 4.69875C3.63932 4.94275 2.01798 6.54008 1.71732 8.62808C2.71668 7.89124 3.90275 7.44961 5.14065 7.35342L5.40532 7.33808L6.54132 7.31408C6.62773 7.31222 6.71148 7.34399 6.77491 7.4027C6.83835 7.46141 6.8765 7.54245 6.88132 7.62875L7.01265 10.0261C8.08132 9.34542 9.09998 8.56208 10.122 7.72608C10.782 7.17774 11.4175 6.60051 12.0267 5.99608L11.8547 5.82542L11.484 5.47008C10.8136 4.84202 10.1165 4.24302 9.39465 3.67475C8.62911 3.07118 7.83532 2.50432 7.01598 1.97608Z" fill="#14191F"/>
</svg>
