     <svg
                width="14"
                height="12"
                viewBox="0 0 14 12"
                fill="none"
                xmlns="http://www.w3.org/2000/svg"
              >
                <path
                  d="M5.74332 0.994393C5.79398 0.464393 6.34732 0.0277261 6.90532 0.346393C8.06532 1.02573 9.15998 1.79973 10.2186 2.62706C11.5253 3.65906 12.574 4.63173 13.3167 5.40839C13.6387 5.74639 13.6087 6.28039 13.3007 6.60306C12.5652 7.36377 11.7873 8.08225 10.9707 8.75506C9.67865 9.81306 8.34065 10.8384 6.88398 11.6604C6.38998 11.9391 5.85465 11.6204 5.75932 11.1264L5.74798 11.0511L5.59665 8.66839C4.38598 8.69373 3.21398 9.10973 2.27665 9.88373L2.09998 10.0317L2.01465 10.1011L1.84998 10.2291C1.82332 10.2491 1.79665 10.2691 1.76998 10.2877L1.61665 10.3944C1.56903 10.4257 1.52057 10.4557 1.47132 10.4844L1.33398 10.5584C0.689984 10.8764 0.333984 10.5951 0.333984 9.33373C0.333984 6.39773 2.49732 3.78506 5.42198 3.38906L5.59465 3.36839L5.74332 0.995059V0.994393ZM7.01598 1.97706L6.88798 4.29173C6.88366 4.37085 6.85129 4.44585 6.79668 4.50327C6.74207 4.56069 6.66879 4.59678 6.58998 4.60506L5.68265 4.69973C3.63932 4.94373 2.01798 6.54106 1.71732 8.62906C2.71668 7.89221 3.90275 7.45058 5.14065 7.35439L5.40532 7.33906L6.54132 7.31506C6.62773 7.3132 6.71148 7.34497 6.77491 7.40368C6.83835 7.46238 6.8765 7.54343 6.88132 7.62973L7.01265 10.0271C8.08132 9.34639 9.09998 8.56306 10.122 7.72706C10.782 7.17871 11.4175 6.60148 12.0267 5.99706L11.8547 5.82639L11.484 5.47106C10.8136 4.84299 10.1165 4.244 9.39465 3.67573C8.62911 3.07216 7.83532 2.5053 7.01598 1.97706Z"
                  fill="#14191F"
                />
              </svg>