<svg width="17" height="15" viewBox="0 0 17 15" fill="none" xmlns="http://www.w3.org/2000/svg">
<path d="M15.5833 7.41634L16.75 8.59134L11.3083 14.083L8.41667 11.1663L9.58333 9.99134L11.3083 11.7247L15.5833 7.41634ZM7.16667 0.333008C8.05072 0.333008 8.89857 0.684197 9.52369 1.30932C10.1488 1.93444 10.5 2.78229 10.5 3.66634C10.5 4.5504 10.1488 5.39824 9.52369 6.02336C8.89857 6.64849 8.05072 6.99967 7.16667 6.99967C6.28261 6.99967 5.43476 6.64849 4.80964 6.02336C4.18452 5.39824 3.83333 4.5504 3.83333 3.66634C3.83333 2.78229 4.18452 1.93444 4.80964 1.30932C5.43476 0.684197 6.28261 0.333008 7.16667 0.333008ZM7.16667 1.99967C6.72464 1.99967 6.30072 2.17527 5.98816 2.48783C5.67559 2.80039 5.5 3.22431 5.5 3.66634C5.5 4.10837 5.67559 4.53229 5.98816 4.84485C6.30072 5.15741 6.72464 5.33301 7.16667 5.33301C7.60869 5.33301 8.03262 5.15741 8.34518 4.84485C8.65774 4.53229 8.83333 4.10837 8.83333 3.66634C8.83333 3.22431 8.65774 2.80039 8.34518 2.48783C8.03262 2.17527 7.60869 1.99967 7.16667 1.99967ZM7.16667 7.83301C7.73333 7.83301 8.41667 7.90801 9.175 8.04967L7.78333 9.44134L7.16667 9.41634C4.69167 9.41634 2.08333 10.633 2.08333 11.1663V12.083H7.25L8.83333 13.6663H0.5V11.1663C0.5 8.94967 4.94167 7.83301 7.16667 7.83301Z" fill="#14191F"/>
</svg>
