
<svg width="14" height="14" viewBox="0 0 14 14" fill="none" xmlns="http://www.w3.org/2000/svg">
<path d="M11.9601 7.66625C11.8134 7.66625 11.6601 7.61959 11.5134 7.58625C11.2164 7.5208 10.9245 7.43391 10.6401 7.32625C10.3308 7.21374 9.99083 7.21958 9.68561 7.34266C9.38038 7.46573 9.13146 7.69734 8.98673 7.99292L8.84007 8.29292C8.19074 7.93171 7.59406 7.48307 7.06673 6.95959C6.54325 6.43226 6.09462 5.83558 5.7334 5.18625L6.0134 4.99959C6.30898 4.85486 6.54059 4.60594 6.66366 4.30071C6.78674 3.99549 6.79258 3.65553 6.68007 3.34625C6.57422 3.0612 6.48736 2.76945 6.42007 2.47292C6.38673 2.32625 6.36007 2.17292 6.34007 2.01959C6.25911 1.55 6.01315 1.12475 5.64648 0.820413C5.27981 0.516078 4.81653 0.352659 4.34007 0.359587H2.34007C2.05275 0.356889 1.76823 0.416129 1.50587 0.533274C1.24351 0.650418 1.00947 0.822717 0.819687 1.03844C0.629901 1.25417 0.488824 1.50825 0.406059 1.7834C0.323295 2.05854 0.300787 2.34829 0.340067 2.63292C0.695226 5.42584 1.97075 8.02084 3.96517 10.008C5.95958 11.9952 8.55921 13.2613 11.3534 13.6063H11.6067C12.0983 13.607 12.573 13.4266 12.9401 13.0996C13.151 12.9109 13.3195 12.6797 13.4344 12.4211C13.5493 12.1626 13.608 11.8825 13.6067 11.5996V9.59959C13.5986 9.13651 13.4299 8.69062 13.1296 8.33803C12.8293 7.98544 12.4159 7.748 11.9601 7.66625ZM12.2934 11.6663C12.2933 11.7609 12.273 11.8545 12.2339 11.9407C12.1948 12.0269 12.1378 12.1038 12.0667 12.1663C11.9925 12.2309 11.9054 12.2792 11.8112 12.3079C11.717 12.3366 11.6178 12.3452 11.5201 12.3329C9.02333 12.0128 6.70423 10.8706 4.92854 9.08645C3.15286 7.30232 2.02167 4.97781 1.7134 2.47959C1.70279 2.38193 1.71209 2.28314 1.74074 2.18918C1.76938 2.09522 1.81678 2.00804 1.88007 1.93292C1.94254 1.86181 2.01944 1.80481 2.10565 1.76573C2.19186 1.72665 2.28541 1.70637 2.38007 1.70625H4.38007C4.5351 1.7028 4.68648 1.75351 4.80816 1.84963C4.92984 1.94576 5.01421 2.0813 5.04673 2.23292C5.0734 2.41514 5.10673 2.59514 5.14673 2.77292C5.22375 3.12435 5.32624 3.46971 5.4534 3.80625L4.52007 4.23959C4.44027 4.2762 4.36848 4.32822 4.30884 4.39265C4.2492 4.45708 4.20287 4.53266 4.17251 4.61505C4.14216 4.69744 4.12838 4.78501 4.13197 4.87273C4.13555 4.96046 4.15643 5.04662 4.1934 5.12625C5.15287 7.18142 6.8049 8.83345 8.86007 9.79292C9.02238 9.8596 9.20443 9.8596 9.36673 9.79292C9.44988 9.76318 9.52628 9.71722 9.59151 9.65771C9.65675 9.5982 9.70951 9.52632 9.74673 9.44625L10.1601 8.51292C10.5047 8.63617 10.8565 8.73858 11.2134 8.81959C11.3912 8.85959 11.5712 8.89292 11.7534 8.91959C11.905 8.95211 12.0406 9.03648 12.1367 9.15816C12.2328 9.27984 12.2835 9.43122 12.2801 9.58625L12.2934 11.6663Z" fill="#14191F"/>
</svg>
