
<svg width="25" height="25" viewBox="0 0 20 20" fill="none" xmlns="http://www.w3.org/2000/svg">
<path d="M14.582 11.9842C14.3338 11.8601 13.1099 11.26 12.8818 11.178C12.6537 11.095 12.4879 11.054 12.3221 11.302C12.1564 11.5491 11.6791 12.1082 11.5334 12.2732C11.3887 12.4383 11.243 12.4583 10.9948 12.3342C10.2613 12.0436 9.58432 11.6279 8.99417 11.106C8.44988 10.6052 7.98325 10.0267 7.60953 9.38959C7.46483 9.14154 7.59445 9.00751 7.71905 8.88448C7.83059 8.77345 7.96825 8.59542 8.09184 8.45038C8.19421 8.32518 8.27812 8.18608 8.34104 8.03729C8.37415 7.96892 8.38956 7.89339 8.38588 7.81758C8.38219 7.74176 8.35952 7.66807 8.31994 7.6032C8.25764 7.47917 7.76025 6.2599 7.55326 5.76379C7.35129 5.28169 7.1463 5.3467 6.99256 5.3387C6.84787 5.3317 6.68207 5.3297 6.51628 5.3297C6.39016 5.3332 6.26613 5.36264 6.152 5.41618C6.03786 5.46971 5.9361 5.54618 5.8531 5.64077C5.57177 5.90596 5.34902 6.22658 5.19902 6.58218C5.04903 6.93779 4.97509 7.3206 4.98191 7.70622C5.0626 8.64066 5.41568 9.53131 5.99779 10.2688C7.06483 11.8612 8.52957 13.15 10.2482 14.0086C10.7118 14.2068 11.1853 14.3811 11.667 14.5307C12.1748 14.6842 12.7116 14.7174 13.2345 14.6277C13.5809 14.5579 13.9089 14.4173 14.1979 14.2148C14.4869 14.0124 14.7306 13.7524 14.9136 13.4515C15.0768 13.0813 15.1271 12.6716 15.0583 12.2732C14.997 12.1692 14.8312 12.1082 14.582 11.9842ZM17.086 2.90317C15.3778 1.20315 13.1071 0.178982 10.6967 0.0213432C8.28639 -0.136296 5.90063 0.583335 3.98361 2.04626C2.06659 3.50918 0.748953 5.61571 0.276019 7.97365C-0.196916 10.3316 0.207076 12.7803 1.41278 14.8638L0 19.9999L5.27934 18.6226C6.73951 19.414 8.37559 19.8287 10.0382 19.8289H10.0422C12.0118 19.8279 13.9368 19.2458 15.5742 18.1562C17.2115 17.0666 18.4877 15.5184 19.2415 13.7071C19.9953 11.8959 20.1928 9.90283 19.8092 7.97986C19.4255 6.05689 18.4779 4.29026 17.086 2.90316V2.90317ZM14.4403 16.8952C13.1221 17.7177 11.5979 18.1541 10.0422 18.1545H10.0382C8.55597 18.1544 7.10107 17.7575 5.82596 17.0052L5.52351 16.8272L2.39047 17.6454L3.22649 14.6047L3.03055 14.2927C2.16092 12.9122 1.72205 11.306 1.76943 9.6773C1.81681 8.04856 2.34832 6.47039 3.29675 5.14233C4.24517 3.81428 5.56791 2.79599 7.09772 2.21623C8.62752 1.63648 10.2957 1.52129 11.8912 1.88524C13.4868 2.24919 14.9381 3.07593 16.0617 4.26091C17.1852 5.4459 17.9305 6.93591 18.2034 8.54254C18.4762 10.1492 18.2644 11.8003 17.5945 13.287C16.9247 14.7738 15.827 16.0294 14.4403 16.8952Z" fill="black"/>
</svg>
